<svg id="Layer_1" data-name="Layer 1" xmlns="http://www.w3.org/2000/svg" viewBox="0 0 208.3 112.63"><path d="M75.84,49.72c3.42-1.5,7.12-1.48,10.78-1.45a21.85,21.85,0,0,1,16.53,9.19A60.3,60.3,0,0,0,105.33,65l3.17.11c1.62-1.6,2.76-3.68,4.82-4.8l-.55-1.07a4.63,4.63,0,0,1-3.63,1.91l2.46-1.69a8.09,8.09,0,0,0-5,.06c1.11-1.09,2.24-2.17,3.39-3.22l-1.83-1.64c2.06.54,3.26,2.18,4,4l1-.31.45,1.15c4-.44,8.06,1.45,11.59-1.21-.86-2.75,1.36-5,3-7,1.51.84,3.35,1.33,4.55,2.64.92,1.56,1.62,3.24,2.49,4.83-.12.69-.37,2.06-.49,2.75,3.77,1.49,7.4-2.38,11.18-1.21,8.66,2.9,17.95,1.15,26.89,1.88,4.87-.16,9.74-1.7,14.58-.41,6.76.45,13.54.06,20.31.11-2.16.77-4.27,1.7-6.44,2.45-10.15,1.71-20.49,1.65-30.77,1.73.06.69.19,2.07.26,2.76-.12-.62-.36-1.86-.47-2.48a21.39,21.39,0,0,1-6.9.64l-2.07,2c-4.26.17-8.59-.36-12.8.26-4.72,2.33-10.09,1.53-15.15,2.16-3.52.54-7,1.43-10.54,1.71.1.75.31,2.26.42,3-.86,6.62-1.84,13.27-1.66,20l2.43.75a19,19,0,0,0-.16,5.16c1.74-2.66,3.45-6.06,6.85-6.76,5.46-.35,11-.71,16.43.19.41.5,1.23,1.48,1.63,2,.87.49,1.73,1,2.6,1.5-8.38,1.82-16.85,3.14-25.28,4.67-3.15-2.2-6,3.15-3,5.16l-1.16,1a54.45,54.45,0,0,0,2.48,5.58l1.74-1.23a10.88,10.88,0,0,1-.3-7.44,7.47,7.47,0,0,0,3.63-3c5.41,2.39,11.47.89,16.92,3.13,2.14-.46,4.3-.82,6.45-1.2a45.83,45.83,0,0,0,.48-6.3Q152,98.13,150.63,97c4,1.49,3.5-2.32,2.44-4.42,0-2,0-4,0-5.95a4.64,4.64,0,0,0-3.38,2.56l.12-2.34c-1.14.75-2.3,1.47-3.49,2.14a2.8,2.8,0,0,1-3.73.2c-4.42,1.2-9.79,0-13.24,3.65a9.21,9.21,0,0,0-3.48.6,64.48,64.48,0,0,0-1.65-7.51c.67-1.85,1.07-4.24,3.11-5.08,2.64-1.51,5.71-.62,8.49-.06,6.49-1.32,13.2-.1,19.68-1.47,4.09.16,7.58,2,11.37,3.22l-1.58,1.6,1,1.46c-1.23,2.45-2.75,4.78-3.34,7.51l3.21-.47A3.62,3.62,0,0,1,163,93.7c.21,3.82-.71,7.57-1.09,11.36l2.82.75-2.22,2.47,4,.55c-.55-3.94.34-7.88.41-11.82.42-4.3-.2-8.89,1.61-12.94,1.45-2.22,2.67-4.69,2.48-7.43l1.17,2.11,1.38-2-3.16-1.44A39.7,39.7,0,0,1,173,67.54c.7,4.27,1.07,8.57,1.55,12.87l2-2.92c-.42,1.94-1.28,3.74-1.76,5.65-.76,8.93-.93,17.92-2.58,26.75,2,.13,3.93.24,5.9.31.5-2.74,1-5.48,1.61-8.19-1.55-3.65-1.67-7.63-1.66-11.54-.71-2-1.36-3.93-2-5.9,2.08.41,3.06-1,3.64-2.71a17.18,17.18,0,0,1,8,.23Q188.78,84,189.89,86c.18,5.78-1.24,11.46-1.13,17.24a24.78,24.78,0,0,1-1.3,7.33c8,.85,16,0,24,.7-4.38,1.27-9,.25-13.44,1.07a58.25,58.25,0,0,1-10.47.68c.32,5.21.48,10.45-.71,15.57-.58,10.61-.34,21.33-1.86,31.87-1.69-15.83-.11-32.16-5.13-47.51-2.38,0-4.76.1-7.14.16-.23.6-.67,1.8-.9,2.4.17,6-2.74,11.79-.91,17.63.51,2.3-.9,4.75.26,7,1.25,2.57-.13,5.37-.73,7.94-.33-3,.35-6.22-1.77-8.66.38-5.18-.31-10.47,1.08-15.54-2.83-2.22-3-5.87-2.9-9.17-2.29,0-4.58,0-6.86.08a62.87,62.87,0,0,1-1.58,12.59c-.49,2.42-2.9,3.72-5.19,3.9l1.69-1.53c-4.36-3.38-3-9.83-2.3-14.59-5.31.53-10.67.57-16,1.35-2.9.26-6.32,1.11-8.65-1.21,0,.65.06,1.93.09,2.57,7.56,6,15.6,11.4,23.52,16.94,4.74,3,9.66,5.83,13.83,9.65-7.6-3.92-14.9-8.36-22.32-12.59-7-3.83-13.34-8.81-20.82-11.74-.19,7-.3,14-.13,21a47,47,0,0,0-2.07,6.95l-1.06.54a69.6,69.6,0,0,1-3.14-8,105.48,105.48,0,0,1-.65-17.5c-.13-2.6.18-5.4-1-7.82-4.93-4.41-11.56-5.81-17-9.4a25.65,25.65,0,0,1-3.1,4.61c0-2.16.41-4.46,2.68-5.32-4.1-1.67-7.92-3.93-12-5.63,1.08,4.39,2.52,9,1.39,13.48-.84,3.62-.19,7.33,0,11a2.62,2.62,0,0,1-1,2.51c-1.58-3.52.2-9.58-4.81-10.6-1.36,8-2.18,16-3.1,24-.43,3.28.3,6.89-1.22,9.93-.91-10.29.49-20.6.05-30.91-.44-5.58,1.39-11.21-.25-16.69-1,4.11-4.39,7.13-5.4,11.22-2.72,1.84-5.53,3.55-8.19,5.48a47.24,47.24,0,0,1-12.78-1.07c-4.4-2.6-7.09-7.17-9.48-11.53,0,1.08,0,3.25,0,4.33L39,110.27c-.85,5.9.57,11.93-1,17.76-.69,10.79-.51,21.68-1.82,32.44-2.31-17.07.5-35.29-7-51.34.6-2.36,1.05-4.75,1.58-7.12-1.61-3.7-1.63-7.75-1.71-11.71-.76-2-1.39-4-2-6l2.38.32c.41-.9.81-1.82,1.2-2.73a14,14,0,0,1,7.21.2c5.19-1.75,8.61-6.17,11-10.88,3.49.4,6.47-1.39,8.64-4a59.42,59.42,0,0,0,7.44-1.84c2.55.79,5,1.87,7.45,2.89a40.83,40.83,0,0,0-3.87-4c-.6-2.5-1.19-5-1.83-7.5a8.61,8.61,0,0,0,3.54-3.56c-.13-.71-.4-2.13-.53-2.84A8.13,8.13,0,0,1,75.84,49.72Zm11.21,9.87c-3.17,6.2,1.85,13.15-.22,19.62l3.35,0a18.82,18.82,0,0,1-3.93,1.59l.27.8c5.64-2.35,0,1.72-.91,3.18,2.3.36,4.1-1.11,6-2.22l-2.59-1,3.15.09c2.74-3.22,3.29-7.58,4.79-11.4a12.26,12.26,0,0,1-8.68-4.09c2.58-2,5.82-2.45,8.88-3.24-.87-1.19-1.62-2.6-3-3.28C91.92,58.38,89.37,59.3,87.05,59.59Zm6,27.73c3.51,3.65,8.25,5.86,11.44,9.84,1.93,2.28,5.11,2.56,7.73,3.63,0-3.41.39-6.91-.74-10.2C110,85.8,108.9,80,112.62,75.91a9.42,9.42,0,0,1-3.11-5.67c-1.34-.12-2.67-.2-4-.27A28.13,28.13,0,0,1,93,87.32Zm-43.53-6c-2.42,5.18-4.2,10.81-4.15,16.59.56,2.54,2.29,5.43,5.17,5.66,2.1.1,4.21-.1,6.31-.07a41.71,41.71,0,0,0,3.8-5L62.84,98C65.09,94,68,89.66,67,84.8c-.37-4.27-2.7-7.9-5.18-11.24C57.23,75.15,52.17,76.94,49.47,81.27Z" transform="translate(-3.44 -48.22)" style="fill:#fff;stroke:#fff;stroke-miterlimit:10.43;stroke-width:0.09375000000000001px"/><path d="M116.69,58.32" transform="translate(-3.44 -48.22)" style="fill:#fff;stroke:#fff;stroke-miterlimit:10.43;stroke-width:0.09375000000000001px"/><path d="M107.75,61.26" transform="translate(-3.44 -48.22)" style="fill:#fff;stroke:#fff;stroke-miterlimit:10.43;stroke-width:0.09375000000000001px"/><path d="M211.5,67.94c-1.62-.64-1.62-1.24,0-1.82Z" transform="translate(-3.44 -48.22)" style="fill:#fff;stroke:#fff;stroke-miterlimit:10.43;stroke-width:0.09375000000000001px"/><path d="M21.44,75.32a17.77,17.77,0,0,1,3.18-7.91c-.94,2.19,0,4.34.23,6.52.38,2.2-.23,4.79,1.59,6.52l-.05-2.24L27.52,78a47,47,0,0,1-1.79,4.57c-.54,8.41-.92,16.86-2.22,25.2a146.08,146.08,0,0,1-2.4,21,28.62,28.62,0,0,1,.68,10.18c1.6,2.92.58,6.13-.28,9.12-.43-2.93.32-6.19-1.82-8.61.36-5.19-.26-10.47,1.07-15.55-1.21-1.37-2.65-2.8-2.69-4.77-.27-4.37-.3-8.76-.76-13.13.54-6,.67-12,1.16-18.06.19-4.11,4.36-7,3-11.35.17.64.52,1.93.7,2.57l2.66-2.22Z" transform="translate(-3.44 -48.22)" style="fill:#fff;stroke:#fff;stroke-miterlimit:10.43;stroke-width:0.09375000000000001px"/><path d="M136.94,74.45c3.69,0-3.31,3.74-3.27,1A5.23,5.23,0,0,1,136.94,74.45Z" transform="translate(-3.44 -48.22)" style="fill:#fff;stroke:#fff;stroke-miterlimit:10.43;stroke-width:0.09375000000000001px"/><path d="M60.56,76.79l2.65-.25c-.43.88-1.28,2.64-1.71,3.51l2.62.15,0,1.31L61,81.17l2.69,2.16-2.82,1A55.54,55.54,0,0,1,66.7,85l-3.28,1.81a13.52,13.52,0,0,0,2.42,3.82,34.67,34.67,0,0,1-5.18-2.57c.32,3,1.54,6.44-.32,9.24a17.62,17.62,0,0,1-1.09-8l-2.14-1.12,2.38-.41c.29-2.72.16-5.51,1.11-8.13l-1.81-1.4,3.1-.18Z" transform="translate(-3.44 -48.22)" style="fill:#fff;stroke:#fff;stroke-miterlimit:10.43;stroke-width:0.09375000000000001px"/><path d="M89.74,77.15" transform="translate(-3.44 -48.22)" style="fill:#fff;stroke:#fff;stroke-miterlimit:10.43;stroke-width:0.09375000000000001px"/><path d="M130,78c.43-1.24,1.38-1.7,2.86-1.37A2.13,2.13,0,0,1,130,78Z" transform="translate(-3.44 -48.22)" style="fill:#fff;stroke:#fff;stroke-miterlimit:10.43;stroke-width:0.09375000000000001px"/><path d="M6.67,81c3.67-3,7.44,1.07,11.16,1.5-.39.4-1.19,1.21-1.58,1.62.25.36.76,1.08,1,1.45-1.24,2.48-2.8,4.84-3.35,7.61l2.56-.72c-.07.36-.2,1.08-.26,1.45L14,93.42c.57,4.64-2.07,9.37,0,13.83a24.29,24.29,0,0,1-1.78,2.16l.76.76L11.13,113a75.73,75.73,0,0,1-1.71,14.4c-.49,2.4-2.89,3.69-5.17,3.88L6,129.7c-3.14-1.35-2.25-5-2.46-7.71.22-8.78,0-17.65,1.35-26.33C4.05,90.84,2.81,84.85,6.67,81Z" transform="translate(-3.44 -48.22)" style="fill:#fff;stroke:#fff;stroke-miterlimit:10.43;stroke-width:0.09375000000000001px"/><path d="M57.31,82.41c1.43-.44,2,0,1.61,1.35C57.48,84.19,56.94,83.74,57.31,82.41Z" transform="translate(-3.44 -48.22)" style="fill:#fff;stroke:#fff;stroke-miterlimit:10.43;stroke-width:0.09375000000000001px"/><path d="M56.7,85.22" transform="translate(-3.44 -48.22)" style="fill:#fff;stroke:#fff;stroke-miterlimit:10.43;stroke-width:0.09375000000000001px"/><path d="M147.57,92.66a2.57,2.57,0,0,1,1.17-3.23A2.57,2.57,0,0,1,147.57,92.66Z" transform="translate(-3.44 -48.22)" style="fill:#fff;stroke:#fff;stroke-miterlimit:10.43;stroke-width:0.09375000000000001px"/><path d="M136.93,91.18" transform="translate(-3.44 -48.22)" style="fill:#fff;stroke:#fff;stroke-miterlimit:10.43;stroke-width:0.09375000000000001px"/><path d="M122.83,92.36" transform="translate(-3.44 -48.22)" style="fill:#fff;stroke:#fff;stroke-miterlimit:10.43;stroke-width:0.09375000000000001px"/><path d="M190.68,102.25" transform="translate(-3.44 -48.22)" style="fill:#fff;stroke:#fff;stroke-miterlimit:10.43;stroke-width:0.09375000000000001px"/><path d="M15.87,108.26" transform="translate(-3.44 -48.22)" style="fill:#fff;stroke:#fff;stroke-miterlimit:10.43;stroke-width:0.09375000000000001px"/><path d="M98.76,109.16" transform="translate(-3.44 -48.22)" style="fill:#fff;stroke:#fff;stroke-miterlimit:10.43;stroke-width:0.09375000000000001px"/><path d="M29.69,119.24" transform="translate(-3.44 -48.22)" style="fill:#fff;stroke:#fff;stroke-miterlimit:10.43;stroke-width:0.09375000000000001px"/><path d="M178.74,119.17" transform="translate(-3.44 -48.22)" style="fill:#fff;stroke:#fff;stroke-miterlimit:10.43;stroke-width:0.09375000000000001px"/><path d="M110.13,122.67" transform="translate(-3.44 -48.22)" style="fill:#fff;stroke:#fff;stroke-miterlimit:10.43;stroke-width:0.09375000000000001px"/><path d="M128.75,125.2" transform="translate(-3.44 -48.22)" style="fill:#fff;stroke:#fff;stroke-miterlimit:10.43;stroke-width:0.09375000000000001px"/><path d="M40.75,159.12" transform="translate(-3.44 -48.22)" style="fill:#fff;stroke:#fff;stroke-miterlimit:10.43;stroke-width:0.09375000000000001px"/><path d="M189.77,159.08" transform="translate(-3.44 -48.22)" style="fill:#fff;stroke:#fff;stroke-miterlimit:10.43;stroke-width:0.09375000000000001px"/></svg>